<svg viewBox="0 0 20 23" fill="none" xmlns="http://www.w3.org/2000/svg">
<path d="M9.14479 22.477C8.30946 22.1784 8.13026 21.7724 7.78773 19.3933C7.38919 16.6278 7.30239 14.9161 7.53293 14.3738C7.83906 13.6552 8.66973 13.2473 9.83173 13.2426C10.9844 13.238 11.8225 13.6496 12.1305 14.3738C12.362 14.9152 12.2752 16.6278 11.8767 19.3933C11.606 21.3253 11.4567 21.8134 11.0833 22.142C10.57 22.5965 9.84199 22.7225 9.15133 22.478L9.14479 22.477ZM5.57666 19.6397C2.69266 18.221 0.844659 15.8205 0.172659 12.6266C0.00465921 11.8025 -0.0233406 9.83596 0.135326 9.07996C0.555326 7.04996 1.35799 5.46236 2.69266 4.05863C4.61533 2.03143 7.08866 0.959961 9.84199 0.959961C12.5673 0.959961 15.0313 2.01183 16.9073 3.97836C18.3353 5.46236 19.138 7.03316 19.5487 9.10236C19.6887 9.79116 19.6887 11.669 19.558 12.4437C19.1287 14.8928 17.766 17.1234 15.778 18.6224C15.0687 19.1581 13.3327 20.0933 13.0527 20.0933C12.95 20.0933 12.9407 19.9869 12.9873 19.5566C13.0713 18.866 13.1553 18.7222 13.5473 18.558C14.1727 18.2966 15.2367 17.5388 15.89 16.8836C17.0193 15.7636 17.85 14.2982 18.2327 12.7582C18.4753 11.7969 18.4473 9.65956 18.1767 8.67022C17.3273 5.52489 14.7607 3.07956 11.6153 2.42623C10.7007 2.23956 9.03933 2.23956 8.11533 2.42623C4.93266 3.07956 2.30066 5.64623 1.49799 8.87556C1.28333 9.75289 1.28333 11.8902 1.49799 12.7676C2.02999 14.9049 3.41133 16.8649 5.22199 18.0316C5.57666 18.2649 6.00599 18.5076 6.18333 18.5822C6.57533 18.7502 6.65933 18.8902 6.73399 19.5809C6.78066 20.0009 6.77133 20.1222 6.66866 20.1222C6.60333 20.1222 6.12733 19.9169 5.62333 19.6742L5.57666 19.6397ZM5.61399 15.8429C4.64333 15.0682 3.78466 13.6944 3.42999 12.3466C3.21533 11.5328 3.21533 9.98529 3.43933 9.17329C4.02733 6.98183 5.64199 5.28316 7.88199 4.48516C8.64733 4.21449 10.346 4.15383 11.2887 4.36196C14.5367 5.08529 16.842 8.33796 16.394 11.5645C16.2167 12.8646 15.7687 13.9324 14.9753 14.9245C14.5833 15.4257 13.6313 16.2666 13.4633 16.2666C13.4353 16.2666 13.4073 15.9493 13.4073 15.5629V14.8573L13.8927 14.2786C15.722 12.0872 15.5913 9.02582 13.594 7.01729C12.8193 6.23516 11.9233 5.77596 10.766 5.56409C10.0193 5.42596 9.86066 5.42596 9.07666 5.55476C7.88666 5.74889 6.96453 6.20996 6.14599 7.02009C4.13933 9.00809 4.00866 12.0853 5.83799 14.2786L6.31959 14.8573V15.5666C6.31959 15.9586 6.28879 16.276 6.25053 16.276C6.21319 16.276 5.94253 16.0893 5.65319 15.856L5.61399 15.8429ZM8.85266 12.0321C8.02199 11.6457 7.57399 10.9168 7.56466 9.96663C7.56466 9.11263 8.04066 8.36783 8.86199 7.93196C9.38466 7.65756 10.3087 7.65756 10.8313 7.93383C11.4007 8.22969 11.8673 8.80369 12.0447 9.40289C12.586 11.2434 10.6353 12.8562 8.87133 12.0321H8.85266Z" fill="currentColor"/>
<path d="M9.98984 12.3947C11.2754 12.3947 12.3176 11.3526 12.3176 10.067C12.3176 8.78142 11.2754 7.73926 9.98984 7.73926C8.70427 7.73926 7.66211 8.78142 7.66211 10.067C7.66211 11.3526 8.70427 12.3947 9.98984 12.3947Z" fill="currentColor"/>
<path d="M10.2121 13.2959C10.3735 13.3174 10.6946 13.3594 10.9914 13.4546C11.2901 13.5479 11.5607 13.6944 11.7717 13.8447C11.977 13.994 12.1263 14.149 12.2197 14.3375C12.313 14.526 12.3597 14.75 12.3877 15.1168C12.4063 15.4846 12.4063 15.9942 12.3223 16.9462C12.2383 17.8954 12.0703 19.287 11.9397 20.1783C11.809 21.0743 11.7157 21.4663 11.5943 21.7556C11.473 22.0543 11.3143 22.2503 11.137 22.3903C10.9597 22.5303 10.7543 22.6143 10.5583 22.6609C10.3623 22.7076 10.185 22.7076 10.017 22.7076C9.849 22.7076 9.69033 22.7076 9.47566 22.6609C9.261 22.6143 8.981 22.5303 8.77566 22.3623C8.56099 22.1943 8.42099 21.9516 8.30899 21.6343C8.19699 21.317 8.11299 20.9343 8.00099 20.169C7.88899 19.4036 7.73966 18.265 7.64633 17.397C7.55299 16.529 7.51566 15.9316 7.50819 15.5303C7.49886 15.129 7.51753 14.9302 7.56419 14.737C7.61086 14.5503 7.68553 14.373 7.78819 14.2236C7.89086 14.0743 8.02526 13.9436 8.16153 13.841C8.29499 13.7383 8.43219 13.6636 8.59646 13.6058C8.75886 13.5404 8.95393 13.4844 9.1938 13.4378C9.43646 13.3911 9.71646 13.3444 9.8602 13.3258C10.0039 13.3043 10.0039 13.3043 10.1645 13.3258L10.2121 13.2959Z" fill="currentColor"/>
</svg>
