<svg viewBox="0 0 24 25" fill="none" xmlns="http://www.w3.org/2000/svg">
<path fill-rule="evenodd" clip-rule="evenodd" d="M1.463 13.042C1.08 13.337 0.592 13.492 0 13.51V14.42H2.051V21.249H3.306V11.902H2.182C2.09264 12.3583 1.83625 12.7648 1.463 13.042ZM11.153 16.009C10.8787 15.7356 10.5489 15.5242 10.186 15.389C9.61256 15.176 8.99332 15.1171 8.39 15.218C8.02326 15.2784 7.67215 15.411 7.357 15.608C7.201 15.703 7.066 15.818 6.952 15.95L7.553 13.09H11.565V11.902H6.677L5.671 16.687L6.834 17.122C7.05196 16.8428 7.33156 16.6178 7.65094 16.4646C7.97032 16.3114 8.32082 16.2342 8.675 16.239C8.972 16.239 9.244 16.285 9.491 16.377C9.74 16.469 9.955 16.604 10.139 16.778C10.322 16.955 10.465 17.168 10.569 17.418C10.674 17.668 10.727 17.957 10.727 18.282C10.727 18.572 10.677 18.84 10.577 19.086C10.477 19.333 10.337 19.546 10.159 19.726C9.979 19.906 9.765 20.044 9.512 20.141C9.24448 20.2397 8.96112 20.2885 8.676 20.285C8.372 20.285 8.097 20.235 7.853 20.134C7.61647 20.0379 7.39955 19.8993 7.213 19.725C7.02845 19.5515 6.87965 19.3436 6.775 19.113C6.66556 18.8755 6.59694 18.6213 6.572 18.361L5.41 18.651C5.47669 19.4018 5.83018 20.0981 6.397 20.595C6.68 20.845 7.016 21.045 7.403 21.195C7.791 21.345 8.215 21.42 8.677 21.42C9.191 21.42 9.653 21.336 10.062 21.17C10.472 21.003 10.82 20.776 11.108 20.491C11.395 20.205 11.615 19.871 11.768 19.489C11.92 19.107 11.997 18.7 11.997 18.269C11.997 17.795 11.923 17.366 11.775 16.983C11.6371 16.6186 11.4254 16.2866 11.153 16.008V16.009ZM14.959 5.782H7.923V3.5L3.136 6.289L7.923 9.079V6.795H14.959C18.839 6.795 21.995 9.865 21.995 13.64C21.995 17.414 18.839 20.485 14.959 20.485V21.5C19.393 21.5 23 17.974 23 13.64C23 9.308 19.393 5.782 14.96 5.782H14.959Z" fill="currentColor"/>
</svg>
