<svg viewBox="0 0 23 25" fill="none" xmlns="http://www.w3.org/2000/svg">
<path fill-rule="evenodd" clip-rule="evenodd" d="M8.897 6.764H15.807V9.024L20.507 6.263L15.808 3.5V5.76H8.898C4.543 5.76 1 9.252 1 13.543C1 17.834 4.543 21.326 8.897 21.326V20.322C5.087 20.322 1.987 17.281 1.987 13.543C1.987 9.805 5.087 6.764 8.897 6.764ZM11.654 13.202C11.278 13.492 10.799 13.647 10.217 13.664V14.565H12.232V21.328H13.464V12.072H12.36C12.266 12.534 12.03 12.91 11.654 13.202ZM21.779 17.105C21.6445 16.7443 21.4368 16.4154 21.169 16.139C20.9002 15.8683 20.5762 15.6589 20.219 15.525C19.8235 15.3778 19.404 15.3052 18.982 15.311C18.811 15.311 18.635 15.326 18.455 15.356C18.0958 15.4177 17.7519 15.5481 17.442 15.74C17.2925 15.832 17.1582 15.9467 17.044 16.08L17.634 13.247H21.574V12.072H16.774L15.786 16.811L16.928 17.241C17.131 16.9747 17.3924 16.7585 17.692 16.609C18.004 16.447 18.352 16.367 18.738 16.367C19.028 16.367 19.296 16.413 19.539 16.505C19.7782 16.5927 19.9963 16.7298 20.179 16.9075C20.3616 17.0851 20.5047 17.2993 20.599 17.536C20.701 17.784 20.752 18.069 20.752 18.392C20.752 18.679 20.703 18.944 20.605 19.188C20.512 19.4243 20.3725 19.6395 20.195 19.821C20.0153 20.0022 19.7987 20.1427 19.56 20.233C19.2975 20.3309 19.0191 20.3794 18.739 20.376C18.439 20.376 18.169 20.326 17.93 20.226C17.69 20.126 17.481 19.992 17.302 19.822C17.1206 19.6495 16.9746 19.4433 16.872 19.215C16.7646 18.9798 16.697 18.7284 16.672 18.471L15.531 18.758C15.5962 19.5005 15.9429 20.1899 16.5 20.685C16.778 20.933 17.107 21.13 17.488 21.278C17.869 21.426 18.286 21.5 18.74 21.5C19.2052 21.507 19.6672 21.4227 20.1 21.252C20.502 21.086 20.844 20.862 21.126 20.579C21.409 20.297 21.625 19.966 21.775 19.587C21.9257 19.2022 22.002 18.7923 22 18.379C22.0038 17.9445 21.9289 17.5129 21.779 17.105Z" fill="currentColor"/>
</svg>
