<svg viewBox="0 0 21 21" fill="none" xmlns="http://www.w3.org/2000/svg">
<path d="M2.55613 9.83716V11.2118C2.55613 11.9076 1.99201 12.4718 1.29613 12.4718C0.600258 12.4718 0.0361328 11.9076 0.0361328 11.2118V9.83716C0.0361328 9.14128 0.600258 8.57715 1.29613 8.57715C1.99201 8.57715 2.55613 9.14128 2.55613 9.83716Z" fill="currentColor"/>
<path d="M17.6763 9.873C17.676 9.86106 17.6758 9.84911 17.6758 9.83716C17.6758 9.14128 18.2399 8.57715 18.9358 8.57715C19.6317 8.57715 20.1958 9.14128 20.1958 9.83716C20.1958 9.84913 20.1956 9.8611 20.1953 9.873H20.1958V11.2476H20.1953C20.1764 11.9269 19.6197 12.4717 18.9358 12.4717C18.2519 12.4717 17.6952 11.9269 17.6763 11.2476H17.6758V9.87296H17.6763V9.873Z" fill="currentColor"/>
<path d="M6.90867 13.9614V15.3359C6.90867 16.0318 6.34459 16.5959 5.64867 16.5959C4.95276 16.5959 4.38867 16.0318 4.38867 15.3359V13.9614C4.38867 13.2655 4.9528 12.7014 5.64867 12.7014C6.34455 12.7014 6.90867 13.2655 6.90867 13.9614V13.9614ZM6.90867 5.7141V10.21H6.90836C6.89316 10.8927 6.33498 11.4414 5.64867 11.4414C4.96237 11.4414 4.40423 10.8927 4.38903 10.21H4.38867V5.7141C4.38867 5.01823 4.9528 4.4541 5.64867 4.4541C6.34455 4.4541 6.90867 5.01823 6.90867 5.7141Z" fill="currentColor"/>
<path d="M13.3242 7.08866C13.3242 7.78454 13.8883 8.34867 14.5842 8.34867C15.2801 8.34867 15.8442 7.78454 15.8442 7.08866V5.71411C15.8442 5.01823 15.2801 4.4541 14.5842 4.4541C13.8883 4.4541 13.3242 5.01823 13.3242 5.71411V7.08866Z" fill="currentColor"/>
<path d="M8.85645 3.07892C8.85645 3.77475 9.42057 4.33892 10.1164 4.33892C10.8123 4.33892 11.3764 3.77475 11.3764 3.07892V1.70434C11.3764 1.00846 10.8123 0.444336 10.1164 0.444336C9.42057 0.444336 8.85645 1.00846 8.85645 1.70434V3.07892ZM8.85645 17.9698C8.85645 17.2739 9.42057 16.7098 10.1164 16.7098C10.8123 16.7098 11.3764 17.2739 11.3764 17.9698V19.3443C11.3764 20.0402 10.8123 20.6043 10.1164 20.6043C9.42057 20.6043 8.85645 20.0402 8.85645 19.3443V17.9698Z" fill="currentColor"/>
<path d="M13.3242 10.8684C13.3242 10.1725 13.8883 9.6084 14.5842 9.6084C15.2801 9.6084 15.8442 10.1725 15.8442 10.8684V15.3357C15.8442 16.0316 15.2801 16.5957 14.5842 16.5957C13.8883 16.5957 13.3242 16.0316 13.3242 15.3357V10.8684Z" fill="currentColor"/>
<path d="M11.3764 6.85961V14.1904C11.3764 14.8864 10.8123 15.4504 10.1164 15.4504C9.42057 15.4504 8.85645 14.8864 8.85645 14.1904V6.85961C8.85645 6.1637 9.42057 5.59961 10.1164 5.59961C10.8123 5.59961 11.3764 6.1637 11.3764 6.85961Z" fill="currentColor"/>
</svg>
