<svg viewBox="0 0 14 14" fill="none" xmlns="http://www.w3.org/2000/svg">
<g clip-path="url(#clip0_438_68540)">
<path d="M4.17546 0.285283C3.4604 0.31902 2.97208 0.433136 2.54519 0.600881C2.10338 0.773061 1.72891 1.00411 1.35632 1.37805C0.983736 1.75198 0.754297 2.12672 0.583326 2.5692C0.417865 2.99703 0.305767 3.48575 0.27418 4.20122C0.242593 4.91669 0.235604 5.14667 0.239099 6.9717C0.242593 8.79674 0.250658 9.0255 0.285336 9.74245C0.319476 10.4574 0.433188 10.9456 0.600933 11.3726C0.773383 11.8144 1.00417 12.1887 1.37823 12.5615C1.7523 12.9342 2.12677 13.1631 2.57033 13.3343C2.99775 13.4995 3.48661 13.6122 4.20194 13.6435C4.91728 13.6748 5.14753 13.682 6.97202 13.6785C8.79652 13.6751 9.02623 13.667 9.74304 13.633C10.4599 13.599 10.9455 13.4845 11.3726 13.3175C11.8145 13.1447 12.1891 12.9143 12.5615 12.5401C12.934 12.1659 13.1633 11.7909 13.3341 11.3481C13.4997 10.9207 13.6122 10.4318 13.6433 9.71705C13.6746 8.9997 13.682 8.77066 13.6785 6.94589C13.675 5.12113 13.6668 4.89236 13.6328 4.17568C13.5988 3.459 13.4849 2.9723 13.3173 2.545C13.1446 2.10319 12.9141 1.72913 12.5401 1.35614C12.1662 0.983146 11.7909 0.753975 11.3483 0.583542C10.9206 0.418081 10.432 0.30531 9.7167 0.274396C9.00136 0.243481 8.77112 0.235551 6.94595 0.239046C5.12078 0.24254 4.89228 0.250336 4.17546 0.285283ZM4.25396 12.4344C3.59871 12.4059 3.24292 12.2971 3.00582 12.2059C2.69183 12.085 2.46817 11.9387 2.23188 11.7047C1.99558 11.4707 1.85042 11.2462 1.72784 10.9329C1.63576 10.6958 1.52488 10.3404 1.49423 9.68519C1.4609 8.97698 1.45391 8.76434 1.45001 6.97009C1.44611 5.17583 1.45297 4.96346 1.48401 4.25498C1.51197 3.60027 1.62152 3.24408 1.71251 3.00711C1.83348 2.69272 1.97919 2.46946 2.21373 2.2333C2.44828 1.99714 2.67208 1.85171 2.98566 1.72913C3.22249 1.63665 3.57787 1.5267 4.23286 1.49552C4.94161 1.46192 5.15398 1.4552 6.94796 1.4513C8.74195 1.4474 8.95486 1.45412 9.66387 1.48531C10.3186 1.5138 10.6749 1.62227 10.9116 1.71381C11.2257 1.83478 11.4493 1.98007 11.6854 2.21502C11.9216 2.44998 12.0671 2.67296 12.1897 2.98722C12.2823 3.22338 12.3923 3.57863 12.4232 4.23401C12.4569 4.94276 12.4646 5.15527 12.4678 6.94912C12.4711 8.74297 12.4647 8.95601 12.4337 9.66423C12.4051 10.3195 12.2965 10.6754 12.2052 10.9128C12.0842 11.2266 11.9384 11.4504 11.7037 11.6864C11.469 11.9225 11.2455 12.0679 10.9318 12.1905C10.6952 12.2828 10.3394 12.393 9.68498 12.4242C8.97623 12.4576 8.76386 12.4645 6.9692 12.4684C5.17454 12.4723 4.96284 12.4651 4.25409 12.4344M9.73269 3.36693C9.73296 3.52644 9.78053 3.6823 9.86937 3.81478C9.95822 3.94726 10.0844 4.05041 10.2318 4.1112C10.3793 4.17199 10.5415 4.18767 10.6979 4.15627C10.8543 4.12487 10.9979 4.0478 11.1105 3.93479C11.223 3.82179 11.2996 3.67794 11.3304 3.52143C11.3613 3.36492 11.345 3.20279 11.2836 3.05553C11.2223 2.90828 11.1187 2.78252 10.9859 2.69415C10.8531 2.60579 10.6971 2.5588 10.5375 2.55912C10.3237 2.55954 10.1188 2.64488 9.96786 2.79637C9.81692 2.94786 9.73234 3.15309 9.73269 3.36693ZM3.50811 6.96552C3.51188 8.87147 5.05976 10.413 6.9653 10.4094C8.87085 10.4058 10.4135 8.85803 10.4099 6.95208C10.4062 5.04613 8.85795 3.50416 6.95213 3.50793C5.04631 3.51169 3.50448 5.05984 3.50811 6.96552ZM4.71862 6.9631C4.71774 6.52002 4.84827 6.08664 5.0937 5.71775C5.33913 5.34886 5.68844 5.06103 6.09745 4.89067C6.50646 4.7203 6.95681 4.67504 7.39154 4.76062C7.82627 4.8462 8.22587 5.05877 8.53979 5.37145C8.85371 5.68413 9.06786 6.08288 9.15516 6.51727C9.24246 6.95166 9.19899 7.40218 9.03024 7.81187C8.8615 8.22155 8.57506 8.57199 8.20714 8.81888C7.83922 9.06577 7.40636 9.19802 6.96329 9.19889C6.66908 9.19951 6.37764 9.14217 6.10561 9.03014C5.83357 8.91811 5.58627 8.75358 5.37782 8.54596C5.16938 8.33834 5.00388 8.09169 4.89077 7.8201C4.77766 7.54851 4.71917 7.2573 4.71862 6.9631Z" fill="currentColor"/>
</g>
<defs>
<clipPath id="clip0_438_68540">
<rect width="13.4411" height="13.4411" fill="currentColor" transform="translate(0.238281 0.238281)"/>
</clipPath>
</defs>
</svg>
