<svg viewBox="0 0 19 19" fill="none" xmlns="http://www.w3.org/2000/svg">
<path d="M9.61822 0.511719C4.63078 0.511719 0.595703 4.55131 0.595703 9.53875C0.595703 14.5262 4.63078 18.5658 9.61822 18.5658C14.6056 18.5658 18.6498 14.5262 18.6498 9.53875C18.6498 4.55131 14.6056 0.511719 9.61822 0.511719ZM15.8694 5.92793H13.2065C12.9131 4.79956 12.5024 3.71631 11.9607 2.71431C13.6217 3.28302 15.0028 4.43396 15.8694 5.92793ZM9.62273 2.34872C10.3765 3.43196 10.9632 4.63707 11.3469 5.92793H7.89857C8.28222 4.63707 8.86897 3.43196 9.62273 2.34872ZM2.63581 11.3442C2.48687 10.7664 2.40111 10.1616 2.40111 9.53875C2.40111 8.91588 2.48687 8.31107 2.63581 7.73334H5.68243C5.61022 8.32461 5.56057 8.92491 5.56057 9.53875C5.56057 10.1526 5.61022 10.7529 5.68695 11.3442H2.63581ZM3.37151 13.1496H6.03449C6.32786 14.2779 6.73859 15.3612 7.28022 16.3677C5.61924 15.799 4.23811 14.6435 3.37151 13.1496ZM6.03449 5.92793H3.37151C4.23811 4.43396 5.61924 3.2785 7.28022 2.7098C6.73859 3.71631 6.32786 4.79956 6.03449 5.92793ZM9.62273 16.7288C8.87349 15.6455 8.28673 14.4404 7.89857 13.1496H11.3469C10.9587 14.4404 10.372 15.6455 9.62273 16.7288ZM11.7351 11.3442H7.51041C7.42465 10.7529 7.36597 10.1526 7.36597 9.53875C7.36597 8.92491 7.42465 8.32461 7.51041 7.73334H11.7351C11.8208 8.32461 11.8795 8.92491 11.8795 9.53875C11.8795 10.1526 11.8208 10.7529 11.7351 11.3442ZM11.9652 16.3632C12.5069 15.3567 12.9176 14.2779 13.211 13.1496H15.8739C15.0028 14.6435 13.6217 15.7945 11.9652 16.3632ZM13.5585 11.3442C13.6307 10.7529 13.6849 10.1526 13.6849 9.53875C13.6849 8.92491 13.6352 8.32461 13.5585 7.73334H16.6051C16.7541 8.31107 16.8444 8.91588 16.8444 9.53875C16.8444 10.1616 16.7586 10.7664 16.6051 11.3442H13.5585Z" fill="currentColor"/>
</svg>
