<svg viewBox="0 0 17 17" fill="none" xmlns="http://www.w3.org/2000/svg">
<path d="M3.99184 6.55425L1.95709 8.589C1.19717 9.34892 0.760163 10.3829 0.768149 11.4696C0.776135 12.5563 1.20358 13.5966 1.99956 14.368C2.77091 15.164 3.81143 15.5914 4.89794 15.5994C6.00924 15.6076 7.01876 15.1952 7.77872 14.4352L9.81347 12.4005M12.4125 9.8512L14.4472 7.81645C15.2071 7.05653 15.6441 6.02255 15.6362 4.93585C15.6282 3.84916 15.2007 2.80887 14.4047 2.03747C13.6336 1.2663 12.5932 0.838832 11.5065 0.830846C10.4199 0.82286 9.38573 1.23506 8.62577 1.995L6.59102 4.02975M5.11659 11.2339L11.2208 5.12964" stroke="currentColor" stroke-width="1.5" stroke-linecap="round" stroke-linejoin="round" fill="transparent"/>
</svg>
