<svg viewBox="0 0 14 11" fill="none" xmlns="http://www.w3.org/2000/svg">
<path fill-rule="evenodd" clip-rule="evenodd" d="M0.222656 1.69083C0.222656 1.69083 5.67245 4.78127 6.73024 4.78127C7.83894 4.78127 13.2297 1.74986 13.2297 1.74986L13.2384 1.20824C13.2384 0.610293 12.7531 0.125 12.1535 0.125H1.30698C0.707949 0.125 0.222656 0.610293 0.222656 1.20824V1.69083ZM13.2298 3.375C13.2298 3.375 7.88997 6.271 6.73036 6.271C5.67257 6.271 0.230903 3.375 0.231444 3.375L0.222778 9.87446C0.222778 10.4724 0.708613 10.9577 1.3071 10.9577H12.1536C12.7532 10.9577 13.2385 10.4724 13.2385 9.87446L13.2298 3.375Z" fill="currentColor"/>
</svg>
