<svg viewBox="0 0 23 23" fill="none" xmlns="http://www.w3.org/2000/svg">
<path d="M1.76016 19.9381C1.7601 20.4352 2.163 20.8381 2.66006 20.8382C3.15711 20.8383 3.5601 20.4354 3.56016 19.9383L1.76016 19.9381ZM2.66052 16.6978L3.56052 16.6979L2.66052 16.6978ZM11.8402 14.3582C12.3372 14.3582 12.7402 13.9553 12.7402 13.4582C12.7402 12.9611 12.3372 12.5582 11.8402 12.5582V14.3582ZM19.9402 15.4382C20.4372 15.4382 20.8402 15.0353 20.8402 14.5382C20.8402 14.0411 20.4372 13.6382 19.9402 13.6382V15.4382ZM15.0802 13.6382C14.5831 13.6382 14.1802 14.0411 14.1802 14.5382C14.1802 15.0353 14.5831 15.4382 15.0802 15.4382V13.6382ZM16.6102 16.9681C16.6102 17.4651 17.0131 17.8681 17.5102 17.8681C18.0072 17.8681 18.4102 17.4651 18.4102 16.9681H16.6102ZM18.4102 12.1081C18.4102 11.611 18.0072 11.2081 17.5102 11.2081C17.0131 11.2081 16.6102 11.611 16.6102 12.1081H18.4102ZM16.6002 1.87313C16.1666 1.63009 15.6181 1.78456 15.3751 2.21814C15.132 2.65173 15.2865 3.20024 15.7201 3.44328L16.6002 1.87313ZM15.7201 8.35312C15.2865 8.59616 15.132 9.14468 15.3751 9.57826C15.6181 10.0118 16.1666 10.1663 16.6002 9.92328L15.7201 8.35312ZM12.5602 5.8982C12.5602 7.19055 11.5125 8.2382 10.2202 8.2382V10.0382C12.5066 10.0382 14.3602 8.18466 14.3602 5.8982H12.5602ZM10.2202 8.2382C8.92781 8.2382 7.88016 7.19055 7.88016 5.8982H6.08015C6.08015 8.18466 7.93369 10.0382 10.2202 10.0382V8.2382ZM7.88016 5.8982C7.88016 4.60586 8.92781 3.5582 10.2202 3.5582V1.7582C7.93369 1.7582 6.08015 3.61174 6.08015 5.8982H7.88016ZM10.2202 3.5582C11.5125 3.5582 12.5602 4.60586 12.5602 5.8982H14.3602C14.3602 3.61174 12.5066 1.7582 10.2202 1.7582V3.5582ZM3.56016 19.9383L3.56052 16.6979L1.76052 16.6977L1.76016 19.9381L3.56016 19.9383ZM5.90052 12.5582C3.61424 12.5582 1.76078 14.4115 1.76052 16.6977L3.56052 16.6979C3.56067 15.4057 4.60828 14.3582 5.90052 14.3582V12.5582ZM5.90052 14.3582H11.8402V12.5582H5.90052V14.3582ZM19.9402 13.6382H17.5102V15.4382H19.9402V13.6382ZM17.5102 13.6382H15.0802V15.4382H17.5102V13.6382ZM18.4102 16.9681V14.5382H16.6102V16.9681H18.4102ZM18.4102 14.5382V12.1081H16.6102V14.5382H18.4102ZM15.7201 3.44328C16.8339 4.06764 17.4202 4.98529 17.4202 5.8982H19.2202C19.2202 4.15589 18.1076 2.71807 16.6002 1.87313L15.7201 3.44328ZM17.4202 5.8982C17.4202 6.81111 16.8339 7.72877 15.7201 8.35312L16.6002 9.92328C18.1076 9.07834 19.2202 7.64051 19.2202 5.8982H17.4202Z" fill="currentColor"/>
</svg>
