<svg viewBox="0 0 23 23" fill="none" xmlns="http://www.w3.org/2000/svg">
<path d="M14.9225 19.0144L14.9228 16.122C14.9229 14.5243 13.6278 13.2291 12.0301 13.2291H5.55264C3.9552 13.2291 2.66017 14.524 2.65999 16.1214L2.65967 19.0144M19.9394 19.0145L19.9397 16.1221C19.9398 14.5245 18.6447 13.2292 17.047 13.2292M14.3654 4.15518C15.0757 4.68225 15.5361 5.52723 15.5361 6.47972C15.5361 7.43222 15.0757 8.27719 14.3654 8.80426M11.7441 6.47956C11.7441 8.07713 10.449 9.37221 8.85144 9.37221C7.25387 9.37221 5.95878 8.07713 5.95878 6.47956C5.95878 4.882 7.25387 3.58691 8.85144 3.58691C10.449 3.58691 11.7441 4.882 11.7441 6.47956Z" stroke="currentColor" stroke-width="2" stroke-linecap="round" stroke-linejoin="round" fill="transparent" />
</svg>
