<svg viewBox="0 0 23 22" fill="none" xmlns="http://www.w3.org/2000/svg">
<path d="M5.36016 17.4789C5.77521 17.014 7.7191 14.8749 8.28876 14.8749H14.3119C15.1374 14.8749 16.8225 16.6481 17.2402 17.2731M19.9402 10.9989C19.9402 15.7706 16.0719 19.6389 11.3002 19.6389C6.52842 19.6389 2.66016 15.7706 2.66016 10.9989C2.66016 6.22715 6.52842 2.35889 11.3002 2.35889C16.0719 2.35889 19.9402 6.22715 19.9402 10.9989ZM14.3951 8.05405C14.3951 6.40569 13.0036 5.05889 11.3004 5.05889C9.59728 5.05889 8.20572 6.40569 8.20572 8.05405C8.20572 9.70241 9.59728 11.0492 11.3004 11.0492C13.0035 11.0492 14.3951 9.70241 14.3951 8.05405Z" stroke="currentColor" stroke-width="1.8" fill="transparent"/>
</svg>
