<svg viewBox="0 0 15 16" fill="none" xmlns="http://www.w3.org/2000/svg">
<path d="M6.72134 15.5431C6.12718 15.3307 5.99971 15.0419 5.75607 13.3497C5.4726 11.3827 5.41086 10.1651 5.57484 9.77941C5.79259 9.26823 6.38343 8.97812 7.20995 8.9748C8.02983 8.97149 8.62598 9.26425 8.84506 9.77941C9.0097 10.1645 8.94796 11.3827 8.66449 13.3497C8.47196 14.7239 8.36574 15.0711 8.1002 15.3048C7.73507 15.6281 7.21725 15.7177 6.72599 15.5438L6.72134 15.5431ZM4.18337 13.525C2.13201 12.5159 0.817545 10.8084 0.339559 8.53665C0.220062 7.95045 0.200146 6.55168 0.313004 6.01395C0.611745 4.57003 1.18267 3.44079 2.13201 2.44233C3.49958 1.0004 5.25883 0.238281 7.21725 0.238281C9.15575 0.238281 10.9084 0.986462 12.2427 2.38524C13.2585 3.44079 13.8294 4.55808 14.1215 6.02988C14.2211 6.51981 14.2211 7.85552 14.1281 8.40653C13.8228 10.1485 12.8535 11.7352 11.4395 12.8013C10.9349 13.1824 9.70012 13.8476 9.50096 13.8476C9.42794 13.8476 9.4213 13.7719 9.45449 13.4659C9.51424 12.9746 9.57399 12.8724 9.85281 12.7555C10.2976 12.5697 11.0544 12.0306 11.5191 11.5646C12.3224 10.7679 12.9133 9.72564 13.1854 8.63026C13.358 7.94647 13.3381 6.42621 13.1456 5.72251C12.5415 3.48527 10.7158 1.74593 8.4786 1.28122C7.82801 1.14845 6.64632 1.14845 5.98909 1.28122C3.72529 1.74593 1.85318 3.57157 1.28225 5.86856C1.12956 6.4926 1.12956 8.01286 1.28225 8.6369C1.66066 10.1572 2.64319 11.5513 3.93109 12.3811C4.18336 12.5471 4.48875 12.7197 4.61488 12.7728C4.89371 12.8923 4.95345 12.9919 5.00656 13.4831C5.03976 13.7819 5.03312 13.8682 4.96009 13.8682C4.91362 13.8682 4.57505 13.7221 4.21656 13.5495L4.18337 13.525ZM4.20992 10.8243C3.5195 10.2733 2.90874 9.29612 2.65646 8.33749C2.50377 7.7586 2.50377 6.6579 2.6631 6.08033C3.08134 4.52157 4.22984 3.31333 5.82312 2.74572C6.3675 2.55319 7.57574 2.51004 8.24625 2.65809C10.5565 3.17258 12.1963 5.48617 11.8776 7.78117C11.7515 8.70594 11.4328 9.4654 10.8685 10.1711C10.5897 10.5276 9.91256 11.1257 9.79307 11.1257C9.77315 11.1257 9.75323 10.9 9.75323 10.6252V10.1233L10.0984 9.7117C11.3996 8.15293 11.3067 5.97544 9.88601 4.54679C9.335 3.99047 8.69768 3.66385 7.87448 3.51315C7.34339 3.4149 7.23053 3.4149 6.67288 3.50651C5.82644 3.6446 5.17054 3.97255 4.58833 4.54879C3.16101 5.96283 3.06806 8.15161 4.36925 9.7117L4.71181 10.1233V10.6278C4.71181 10.9067 4.6899 11.1324 4.66268 11.1324C4.63612 11.1324 4.4436 10.9996 4.2378 10.8336L4.20992 10.8243ZM6.51355 8.11377C5.9227 7.83892 5.60405 7.32044 5.59741 6.64462C5.59741 6.03718 5.93598 5.50741 6.52019 5.19739C6.89195 5.00221 7.54919 5.00221 7.92095 5.19871C8.32591 5.40916 8.65785 5.81744 8.78398 6.24365C9.16903 7.5528 7.78154 8.69996 6.52683 8.11377H6.51355Z" fill="currentColor"/>
<path d="M7.32171 8.36998C8.23612 8.36998 8.9774 7.6287 8.9774 6.71428C8.9774 5.79987 8.23612 5.05859 7.32171 5.05859C6.40729 5.05859 5.66602 5.79987 5.66602 6.71428C5.66602 7.6287 6.40729 8.36998 7.32171 8.36998Z" fill="currentColor"/>
<path d="M7.48153 9.01172C7.59638 9.02699 7.82476 9.05686 8.03587 9.12458C8.24831 9.19096 8.44083 9.29519 8.59086 9.40207C8.73691 9.50829 8.84313 9.61849 8.90952 9.7526C8.97591 9.8867 9.0091 10.046 9.02902 10.3069C9.04229 10.5685 9.04229 10.931 8.98255 11.6081C8.9228 12.2833 8.8033 13.2731 8.71036 13.9071C8.61742 14.5444 8.55103 14.8232 8.46473 15.029C8.37842 15.2415 8.26557 15.3809 8.13943 15.4805C8.01329 15.58 7.86724 15.6398 7.72783 15.673C7.58842 15.7062 7.46228 15.7062 7.34279 15.7062C7.22329 15.7062 7.11043 15.7062 6.95774 15.673C6.80505 15.6398 6.60589 15.58 6.45984 15.4605C6.30715 15.341 6.20757 15.1684 6.1279 14.9427C6.04824 14.717 5.98849 14.4448 5.90882 13.9004C5.82916 13.3561 5.72294 12.5462 5.65655 11.9288C5.59017 11.3114 5.56361 10.8865 5.5583 10.601C5.55166 10.3156 5.56494 10.1742 5.59813 10.0367C5.63133 9.90396 5.68444 9.77782 5.75746 9.6716C5.83049 9.56539 5.92608 9.47244 6.02301 9.39942C6.11794 9.32639 6.21553 9.27328 6.33237 9.23212C6.44789 9.18565 6.58664 9.14582 6.75725 9.11263C6.92986 9.07943 7.12902 9.04624 7.23125 9.03296C7.33349 9.01769 7.33349 9.01769 7.44768 9.03296L7.48153 9.01172Z" fill="currentColor"/>
</svg>
