<svg viewBox="0 0 20 20" fill="none" xmlns="http://www.w3.org/2000/svg">
<path d="M3.5 16.4992C3.78696 16.1778 5.71487 14.6637 6.67313 13.9173C7.02213 13.6454 7.45023 13.4992 7.89262 13.4992C8.96233 13.4992 11.0237 13.4992 12.0985 13.4992C12.5461 13.4992 12.9785 13.6517 13.3388 13.9171C14.5761 14.8286 15.7361 15.5078 17 16.4992M5 17.999H15C16.6569 17.999 18 16.6559 18 14.999V4.99902C18 3.34217 16.6569 1.99902 15 1.99902H5C3.34315 1.99902 2 3.34217 2 4.99902V14.999C2 16.6559 3.34315 17.999 5 17.999ZM12.8655 7.72572C12.8655 6.19946 11.577 4.95243 10 4.95243C8.42302 4.95243 7.13454 6.19946 7.13454 7.72572C7.13454 9.25198 8.42302 10.499 10 10.499C11.577 10.499 12.8655 9.25198 12.8655 7.72572Z" stroke="currentColor" fill="transparent" stroke-width="1.66667"/>
</svg>
