<svg viewBox="0 0 17 18" fill="none" xmlns="http://www.w3.org/2000/svg">
<path d="M5.37095 6.86196L11.4385 4.01103C11.3613 3.75481 11.3198 3.48294 11.3198 3.2013C11.3198 1.66411 12.5565 0.417969 14.0821 0.417969C15.6076 0.417969 16.8444 1.66411 16.8444 3.2013C16.8444 4.73849 15.6076 5.98464 14.0821 5.98464C13.4333 5.98464 12.8368 5.75928 12.3654 5.38202L6.08659 8.33222C6.10874 8.47419 6.12024 8.61973 6.12024 8.76797C6.12024 8.91621 6.10874 9.06174 6.08659 9.20372L12.3654 12.1539C12.8368 11.7767 13.4333 11.5513 14.0821 11.5513C15.6076 11.5513 16.8444 12.7974 16.8444 14.3346C16.8444 15.8718 15.6076 17.118 14.0821 17.118C12.5565 17.118 11.3198 15.8718 11.3198 14.3346C11.3198 14.053 11.3613 13.7811 11.4385 13.5249L5.37095 10.674C4.86711 11.214 4.15163 11.5513 3.35797 11.5513C1.83241 11.5513 0.595703 10.3052 0.595703 8.76797C0.595703 7.23078 1.83241 5.98464 3.35797 5.98464C4.15163 5.98464 4.86711 6.3219 5.37095 6.86196Z" fill="currentColor"/>
</svg>
