<svg viewBox="0 0 17 17" fill="none" xmlns="http://www.w3.org/2000/svg">
<path d="M8.20308 0.203125C3.78492 0.203125 0.203125 3.78491 0.203125 8.20317C0.203125 12.6216 3.78492 16.2031 8.20308 16.2031C12.6217 16.2031 16.2031 12.6216 16.2031 8.20317C16.2031 3.7852 12.6217 0.203507 8.20298 0.203507L8.20308 0.203125ZM11.8718 11.7415C11.7285 11.9765 11.4209 12.051 11.1859 11.9068C9.30759 10.7594 6.94304 10.4996 4.15835 11.1358C3.89 11.197 3.62252 11.0288 3.56138 10.7604C3.49995 10.4919 3.66742 10.2244 3.93643 10.1633C6.98383 9.46678 9.59781 9.76684 11.7065 11.0556C11.9415 11.1998 12.0161 11.5065 11.8718 11.7415ZM12.851 9.56288C12.6704 9.85664 12.2864 9.94931 11.9931 9.76875C9.84275 8.44668 6.56484 8.06389 4.02136 8.83598C3.69149 8.93562 3.34309 8.74971 3.24298 8.42041C3.14363 8.09054 3.32962 7.7428 3.65892 7.6425C6.56426 6.76092 10.1761 7.18795 12.6456 8.70548C12.9389 8.88604 13.0315 9.27008 12.851 9.56298V9.56288ZM12.935 7.29457C10.3567 5.76309 6.10276 5.62228 3.64105 6.36943C3.24575 6.48933 2.82771 6.26616 2.70792 5.87085C2.58812 5.47535 2.81109 5.05759 3.20668 4.93741C6.03254 4.07953 10.7302 4.24528 13.6987 6.00756C14.055 6.21859 14.1716 6.67781 13.9605 7.0329C13.7503 7.38847 13.2898 7.50569 12.9354 7.29457H12.935Z" fill="currentColor"/>
</svg>
