<svg viewBox="0 0 16 16" fill="none" xmlns="http://www.w3.org/2000/svg">
<path d="M11.7954 7.41569C11.7265 7.38266 11.6565 7.35087 11.5856 7.32043C11.4621 5.04485 10.2187 3.74208 8.13081 3.72875C8.12135 3.72869 8.11194 3.72869 8.10248 3.72869C6.85368 3.72869 5.81508 4.26174 5.17582 5.23173L6.32407 6.0194C6.80162 5.29486 7.55108 5.1404 8.10303 5.1404C8.10941 5.1404 8.11581 5.1404 8.12212 5.14046C8.80957 5.14484 9.32832 5.34472 9.66407 5.7345C9.9084 6.01828 10.0718 6.41042 10.1527 6.90532C9.54323 6.80173 8.88407 6.76988 8.1794 6.81028C6.19438 6.92462 4.91824 8.08232 5.00395 9.691C5.04744 10.507 5.45396 11.209 6.14857 11.6676C6.73585 12.0553 7.49223 12.2448 8.27834 12.2019C9.31648 12.145 10.1309 11.7489 10.6991 11.0247C11.1306 10.4747 11.4035 9.76192 11.524 8.86383C12.0187 9.16242 12.3854 9.55533 12.5879 10.0277C12.9322 10.8306 12.9523 12.15 11.8757 13.2257C10.9325 14.168 9.79865 14.5757 8.08511 14.5883C6.18433 14.5742 4.7468 13.9646 3.81216 12.7764C2.93694 11.6638 2.48463 10.0568 2.46775 8C2.48463 5.94315 2.93694 4.33613 3.81216 3.22356C4.7468 2.03541 6.18431 1.42583 8.08508 1.41171C9.99965 1.42594 11.4622 2.03845 12.4327 3.23233C12.9085 3.8178 13.2672 4.55407 13.5037 5.41253L14.8493 5.05352C14.5627 3.99685 14.1116 3.08631 13.4977 2.33117C12.2537 0.800557 10.4342 0.0162623 8.08978 0H8.08039C5.74078 0.0162058 3.94166 0.803483 2.73301 2.33994C1.65748 3.7072 1.10268 5.60964 1.08404 7.99438L1.08398 8L1.08404 8.00562C1.10268 10.3903 1.65748 12.2928 2.73301 13.6601C3.94166 15.1965 5.74078 15.9838 8.08039 16H8.08978C10.1698 15.9856 11.636 15.441 12.8438 14.2343C14.4241 12.6555 14.3765 10.6766 13.8557 9.46175C13.482 8.59058 12.7696 7.88302 11.7954 7.41569ZM8.20403 10.7923C7.33403 10.8413 6.43018 10.4508 6.38562 9.61433C6.35258 8.99417 6.82697 8.30217 8.25742 8.21973C8.42123 8.21028 8.58198 8.20567 8.7399 8.20567C9.25949 8.20567 9.74557 8.25614 10.1875 8.35275C10.0227 10.4113 9.05582 10.7455 8.20403 10.7923Z" fill="currentColor"/>
</svg>
